<?xml version="1.0" encoding="utf-8"?>
<!-- Generator: Adobe Illustrator 21.0.2, SVG Export Plug-In . SVG Version: 6.00 Build 0)  -->
<svg version="1.1" xmlns="http://www.w3.org/2000/svg" xmlns:xlink="http://www.w3.org/1999/xlink" x="0px" y="0px"
	 viewBox="0 0 390 215" style="enable-background:new 0 0 390 215;" xml:space="preserve">
<style type="text/css">
	.st0{opacity:0.12;clip-path:url(#SVGID_2_);fill:url(#);}
	.st1{fill:#FEB89B;}
	.st2{fill:#FF8575;}
	.st3{fill:#9A487B;}
	.st4{fill:#6D3759;}
	.st5{fill:#F4D4D3;}
	.st6{fill:#E98984;}
	.st7{fill:#FC6E63;}
	.st8{fill:#AA4488;}
	.st9{fill:#7A0583;}
	.st10{fill:#E57673;}
	.st11{fill:none;}
	.st12{fill:none;stroke:#FC6E63;stroke-width:14;stroke-miterlimit:10;}
	.st13{fill:none;stroke:#F9F9F9;stroke-miterlimit:10;}
	.st14{opacity:0.12;fill:url(#);}
	.st15{fill:none;stroke:#AA4488;stroke-width:8;stroke-miterlimit:10;}
	.st16{opacity:0.12;clip-path:url(#SVGID_5_);fill:url(#);}
	.st17{fill:#FFFFFF;}
	.st18{fill:none;stroke:#FC6E63;stroke-width:10;stroke-miterlimit:10;}
	.st19{fill:none;stroke:#FC6E63;stroke-width:8;stroke-miterlimit:10;}
	.st20{fill:none;stroke:#FFFFFF;stroke-width:6;stroke-miterlimit:10;}
	.st21{fill:#FFFFFF;stroke:#000000;stroke-miterlimit:10;}
	.st22{opacity:0.12;clip-path:url(#SVGID_6_);fill:url(#);}
	.st23{clip-path:url(#SVGID_6_);fill:none;}
	.st24{clip-path:url(#SVGID_7_);}
	.st25{fill:#606060;}
	.st26{fill:none;stroke:#C8C8C8;stroke-miterlimit:10;stroke-dasharray:12;}
	.st27{fill:#F9F9F9;stroke:#2196F3;stroke-miterlimit:10;}
	.st28{fill:#919191;stroke:#2196F3;stroke-miterlimit:10;}
	.st29{fill:#FFFFFF;stroke:#2196F3;stroke-miterlimit:10;}
	.st30{fill:#7A0583;stroke:#2196F3;stroke-miterlimit:10;}
	.st31{fill:#D6D6D6;stroke:#2196F3;stroke-miterlimit:10;}
	.st32{fill:none;stroke:#2196F3;stroke-miterlimit:10;}
	.st33{fill:#AA4488;stroke:#2196F3;stroke-miterlimit:10;}
	.st34{fill:#FC6E63;stroke:#2196F3;stroke-miterlimit:10;}
	.st35{opacity:0.12;clip-path:url(#SVGID_24_);fill:url(#);}
	.st36{clip-path:url(#SVGID_24_);fill:none;}
	.st37{fill:#2196F3;stroke:#2196F3;stroke-miterlimit:10;}
</style>
<g id="Layer_1">
	<path class="st19" d="M3.4,133.1c0,0-3.1-14.7,1.1-31.3s33.4-22.2,33.9,1.4c0.4,23.6-1.3,38.1,1.2,60.9s31.9,29.7,33.3-4.9
		c1.4-34.6-0.1-65.2,0-90c0.1-24.8,28.8-33.1,34.7-2.7c0.8,34.4,0.4,96.3,0.5,125.7c0.1,29.4,33.6,30,34,3.9c0.3-26.1-0.1-69,0-89.1
		s34.2-22.1,37.1,1.4s-1.8,26.3,0,50.3c1.8,24,30.1,18.5,31,0.6c1-17.8,0.1-127.5,0.9-141.6s33.1-24.9,36.3,0.6
		c3.2,25.5-0.6,159,0,172c0.6,13,8.7,17.3,17.6,18.1c9,0.8,16.5-6.8,17.1-14.2c0.5-7.4,0.8-72,0.6-87.7s34.4-22,34.6-0.1
		s0.2,37.1,0,51.2s32.8,18.4,32.7,1.2s0.4-58.5,0-86.5s39.6-27.9,38.4,1.7"/>
</g>
<g id="specctr">
	<g id="Spacing">
	</g>
	<g id="Coordinates">
	</g>
	<g id="Text_Properties">
	</g>
	<g id="Dimensions">
	</g>
	<g id="Object_Properties">
	</g>
</g>
</svg>
