<?xml version="1.0" encoding="utf-8"?>
<!-- Generator: Adobe Illustrator 21.0.2, SVG Export Plug-In . SVG Version: 6.00 Build 0)  -->
<svg version="1.1" xmlns="http://www.w3.org/2000/svg" xmlns:xlink="http://www.w3.org/1999/xlink" x="0px" y="0px"
	 viewBox="0 0 45 46" style="enable-background:new 0 0 45 46;" xml:space="preserve">
<style type="text/css">
	.st0{opacity:0.12;clip-path:url(#SVGID_2_);fill:url(#);}
	.st1{fill:#FEB89B;}
	.st2{fill:#FF8575;}
	.st3{fill:#9A487B;}
	.st4{fill:#6D3759;}
	.st5{fill:#F4D4D3;}
	.st6{fill:#E98984;}
	.st7{fill:#FC6E63;}
	.st8{fill:#AA4488;}
	.st9{fill:#7A0583;}
	.st10{fill:#E57673;}
	.st11{fill:none;}
	.st12{fill:none;stroke:#FC6E63;stroke-width:14;stroke-miterlimit:10;}
	.st13{fill:none;stroke:#F9F9F9;stroke-miterlimit:10;}
	.st14{opacity:0.12;fill:url(#);}
	.st15{fill:none;stroke:#AA4488;stroke-width:8;stroke-miterlimit:10;}
	.st16{opacity:0.12;clip-path:url(#SVGID_5_);fill:url(#);}
	.st17{fill:#FFFFFF;}
	.st18{fill:none;stroke:#FC6E63;stroke-width:10;stroke-miterlimit:10;}
	.st19{fill:none;stroke:#FC6E63;stroke-width:8;stroke-miterlimit:10;}
	.st20{fill:none;stroke:#FFFFFF;stroke-width:6;stroke-miterlimit:10;}
	.st21{fill:#FFFFFF;stroke:#000000;stroke-miterlimit:10;}
	.st22{opacity:0.12;clip-path:url(#SVGID_6_);fill:url(#);}
	.st23{clip-path:url(#SVGID_6_);fill:none;}
	.st24{clip-path:url(#SVGID_7_);}
	.st25{fill:#606060;}
	.st26{fill:none;stroke:#C8C8C8;stroke-miterlimit:10;stroke-dasharray:12;}
	.st27{fill:#F9F9F9;stroke:#2196F3;stroke-miterlimit:10;}
	.st28{fill:#919191;stroke:#2196F3;stroke-miterlimit:10;}
	.st29{fill:#FFFFFF;stroke:#2196F3;stroke-miterlimit:10;}
	.st30{fill:#7A0583;stroke:#2196F3;stroke-miterlimit:10;}
	.st31{fill:#D6D6D6;stroke:#2196F3;stroke-miterlimit:10;}
	.st32{fill:none;stroke:#2196F3;stroke-miterlimit:10;}
	.st33{fill:#AA4488;stroke:#2196F3;stroke-miterlimit:10;}
	.st34{fill:#FC6E63;stroke:#2196F3;stroke-miterlimit:10;}
	.st35{opacity:0.12;clip-path:url(#SVGID_24_);fill:url(#);}
	.st36{clip-path:url(#SVGID_24_);fill:none;}
	.st37{fill:#2196F3;stroke:#2196F3;stroke-miterlimit:10;}
</style>
<g id="Layer_1">
	<g>
		<g>
			<path class="st17" d="M22.4,45C10.2,45,0.3,35.1,0.3,22.9c0-12.2,9.9-22.1,22.1-22.1s22.1,9.9,22.1,22.1
				C44.6,35.1,34.6,45,22.4,45z"/>
		</g>
		<path class="st9" d="M19.4,34.4h4.9V22.2h3.4l0.4-4.1h-3.8c0,0,0-1.5,0-2.3c0-1,0.2-1.3,1.1-1.3c0.7,0,2.6,0,2.6,0v-4.2
			c0,0-2.8,0-3.4,0c-3.6,0-5.3,1.6-5.3,4.7c0,2.7,0,3.3,0,3.3h-2.5v4.1h2.5V34.4z"/>
	</g>
</g>
<g id="specctr">
	<g id="Spacing">
	</g>
	<g id="Coordinates">
	</g>
	<g id="Text_Properties">
	</g>
	<g id="Dimensions">
	</g>
	<g id="Object_Properties">
	</g>
</g>
</svg>
