<?xml version="1.0" encoding="utf-8"?>
<!-- Generator: Adobe Illustrator 21.0.2, SVG Export Plug-In . SVG Version: 6.00 Build 0)  -->
<svg version="1.1" xmlns="http://www.w3.org/2000/svg" xmlns:xlink="http://www.w3.org/1999/xlink" x="0px" y="0px"
	 viewBox="0 0 45 46" style="enable-background:new 0 0 45 46;" xml:space="preserve">
<style type="text/css">
	.st0{opacity:0.12;clip-path:url(#SVGID_2_);fill:url(#);}
	.st1{fill:#FEB89B;}
	.st2{fill:#FF8575;}
	.st3{fill:#9A487B;}
	.st4{fill:#6D3759;}
	.st5{fill:#F4D4D3;}
	.st6{fill:#E98984;}
	.st7{fill:#FC6E63;}
	.st8{fill:#AA4488;}
	.st9{fill:#7A0583;}
	.st10{fill:#E57673;}
	.st11{fill:none;}
	.st12{fill:none;stroke:#FC6E63;stroke-width:14;stroke-miterlimit:10;}
	.st13{fill:none;stroke:#F9F9F9;stroke-miterlimit:10;}
	.st14{opacity:0.12;fill:url(#);}
	.st15{fill:none;stroke:#AA4488;stroke-width:8;stroke-miterlimit:10;}
	.st16{opacity:0.12;clip-path:url(#SVGID_5_);fill:url(#);}
	.st17{fill:#FFFFFF;}
	.st18{fill:none;stroke:#FC6E63;stroke-width:10;stroke-miterlimit:10;}
	.st19{fill:none;stroke:#FC6E63;stroke-width:8;stroke-miterlimit:10;}
	.st20{fill:none;stroke:#FFFFFF;stroke-width:6;stroke-miterlimit:10;}
	.st21{fill:#FFFFFF;stroke:#000000;stroke-miterlimit:10;}
	.st22{opacity:0.12;clip-path:url(#SVGID_6_);fill:url(#);}
	.st23{clip-path:url(#SVGID_6_);fill:none;}
	.st24{clip-path:url(#SVGID_7_);}
	.st25{fill:#606060;}
	.st26{fill:none;stroke:#C8C8C8;stroke-miterlimit:10;stroke-dasharray:12;}
	.st27{fill:#F9F9F9;stroke:#2196F3;stroke-miterlimit:10;}
	.st28{fill:#919191;stroke:#2196F3;stroke-miterlimit:10;}
	.st29{fill:#FFFFFF;stroke:#2196F3;stroke-miterlimit:10;}
	.st30{fill:#7A0583;stroke:#2196F3;stroke-miterlimit:10;}
	.st31{fill:#D6D6D6;stroke:#2196F3;stroke-miterlimit:10;}
	.st32{fill:none;stroke:#2196F3;stroke-miterlimit:10;}
	.st33{fill:#AA4488;stroke:#2196F3;stroke-miterlimit:10;}
	.st34{fill:#FC6E63;stroke:#2196F3;stroke-miterlimit:10;}
	.st35{opacity:0.12;clip-path:url(#SVGID_24_);fill:url(#);}
	.st36{clip-path:url(#SVGID_24_);fill:none;}
	.st37{fill:#2196F3;stroke:#2196F3;stroke-miterlimit:10;}
</style>
<g id="Layer_1">
	<g>
		<g>
			<circle class="st17" cx="22.2" cy="23.4" r="21.6"/>
		</g>
		<g>
			<path class="st9" d="M22.2,13.6c3.3,0,3.7,0,5.1,0.1c1.2,0.1,1.9,0.3,2.3,0.4c0.6,0.2,1,0.5,1.4,0.9c0.4,0.4,0.7,0.9,0.9,1.4
				c0.2,0.4,0.4,1.1,0.4,2.3c0.1,1.3,0.1,1.7,0.1,5.1c0,3.3,0,3.7-0.1,5.1c-0.1,1.2-0.3,1.9-0.4,2.3c-0.2,0.6-0.5,1-0.9,1.4
				c-0.4,0.4-0.9,0.7-1.4,0.9c-0.4,0.2-1.1,0.4-2.3,0.4c-1.3,0.1-1.7,0.1-5.1,0.1c-3.3,0-3.7,0-5.1-0.1c-1.2-0.1-1.9-0.3-2.3-0.4
				c-0.6-0.2-1-0.5-1.4-0.9c-0.4-0.4-0.7-0.9-0.9-1.4c-0.2-0.4-0.4-1.1-0.4-2.3c-0.1-1.3-0.1-1.7-0.1-5.1c0-3.3,0-3.7,0.1-5.1
				c0.1-1.2,0.3-1.9,0.4-2.3c0.2-0.6,0.5-1,0.9-1.4c0.4-0.4,0.9-0.7,1.4-0.9c0.4-0.2,1.1-0.4,2.3-0.4C18.5,13.6,18.9,13.6,22.2,13.6
				 M22.2,11.3c-3.4,0-3.8,0-5.2,0.1c-1.3,0.1-2.2,0.3-3,0.6c-0.8,0.3-1.5,0.7-2.2,1.4c-0.7,0.7-1.1,1.4-1.4,2.2
				c-0.3,0.8-0.5,1.7-0.6,3c-0.1,1.3-0.1,1.8-0.1,5.2c0,3.4,0,3.8,0.1,5.2c0.1,1.3,0.3,2.2,0.6,3c0.3,0.8,0.7,1.5,1.4,2.2
				c0.7,0.7,1.4,1.1,2.2,1.4c0.8,0.3,1.7,0.5,3,0.6c1.3,0.1,1.8,0.1,5.2,0.1c3.4,0,3.8,0,5.2-0.1c1.3-0.1,2.2-0.3,3-0.6
				c0.8-0.3,1.5-0.7,2.2-1.4c0.7-0.7,1.1-1.4,1.4-2.2c0.3-0.8,0.5-1.7,0.6-3c0.1-1.3,0.1-1.8,0.1-5.2c0-3.4,0-3.8-0.1-5.2
				c-0.1-1.3-0.3-2.2-0.6-3c-0.3-0.8-0.7-1.5-1.4-2.2c-0.7-0.7-1.4-1.1-2.2-1.4c-0.8-0.3-1.7-0.5-3-0.6C26,11.3,25.6,11.3,22.2,11.3
				"/>
			<path class="st9" d="M22.2,17.4c-3.5,0-6.4,2.9-6.4,6.4c0,3.5,2.9,6.4,6.4,6.4s6.4-2.9,6.4-6.4C28.6,20.3,25.7,17.4,22.2,17.4
				 M22.2,28c-2.3,0-4.2-1.9-4.2-4.2s1.9-4.2,4.2-4.2s4.2,1.9,4.2,4.2S24.5,28,22.2,28"/>
			<path class="st9" d="M30.4,17.1c0,0.8-0.7,1.5-1.5,1.5c-0.8,0-1.5-0.7-1.5-1.5c0-0.8,0.7-1.5,1.5-1.5
				C29.7,15.6,30.4,16.3,30.4,17.1"/>
		</g>
	</g>
</g>
<g id="specctr">
	<g id="Spacing">
	</g>
	<g id="Coordinates">
	</g>
	<g id="Text_Properties">
	</g>
	<g id="Dimensions">
	</g>
	<g id="Object_Properties">
	</g>
</g>
</svg>
