<?xml version="1.0" encoding="utf-8"?>
<!-- Generator: Adobe Illustrator 21.0.2, SVG Export Plug-In . SVG Version: 6.00 Build 0)  -->
<svg version="1.1" xmlns="http://www.w3.org/2000/svg" xmlns:xlink="http://www.w3.org/1999/xlink" x="0px" y="0px"
	 viewBox="0 0 45 46" style="enable-background:new 0 0 45 46;" xml:space="preserve">
<style type="text/css">
	.st0{opacity:0.12;clip-path:url(#SVGID_2_);fill:url(#);}
	.st1{fill:#FEB89B;}
	.st2{fill:#FF8575;}
	.st3{fill:#9A487B;}
	.st4{fill:#6D3759;}
	.st5{fill:#F4D4D3;}
	.st6{fill:#E98984;}
	.st7{fill:#FC6E63;}
	.st8{fill:#AA4488;}
	.st9{fill:#7A0583;}
	.st10{fill:#E57673;}
	.st11{fill:none;}
	.st12{fill:none;stroke:#FC6E63;stroke-width:14;stroke-miterlimit:10;}
	.st13{fill:none;stroke:#F9F9F9;stroke-miterlimit:10;}
	.st14{opacity:0.12;fill:url(#);}
	.st15{fill:none;stroke:#AA4488;stroke-width:8;stroke-miterlimit:10;}
	.st16{opacity:0.12;clip-path:url(#SVGID_5_);fill:url(#);}
	.st17{fill:#FFFFFF;}
	.st18{fill:none;stroke:#FC6E63;stroke-width:10;stroke-miterlimit:10;}
	.st19{fill:none;stroke:#FC6E63;stroke-width:8;stroke-miterlimit:10;}
	.st20{fill:none;stroke:#FFFFFF;stroke-width:6;stroke-miterlimit:10;}
	.st21{fill:#FFFFFF;stroke:#000000;stroke-miterlimit:10;}
	.st22{opacity:0.12;clip-path:url(#SVGID_6_);fill:url(#);}
	.st23{clip-path:url(#SVGID_6_);fill:none;}
	.st24{clip-path:url(#SVGID_7_);}
	.st25{fill:#606060;}
	.st26{fill:none;stroke:#C8C8C8;stroke-miterlimit:10;stroke-dasharray:12;}
	.st27{fill:#F9F9F9;stroke:#2196F3;stroke-miterlimit:10;}
	.st28{fill:#919191;stroke:#2196F3;stroke-miterlimit:10;}
	.st29{fill:#FFFFFF;stroke:#2196F3;stroke-miterlimit:10;}
	.st30{fill:#7A0583;stroke:#2196F3;stroke-miterlimit:10;}
	.st31{fill:#D6D6D6;stroke:#2196F3;stroke-miterlimit:10;}
	.st32{fill:none;stroke:#2196F3;stroke-miterlimit:10;}
	.st33{fill:#AA4488;stroke:#2196F3;stroke-miterlimit:10;}
	.st34{fill:#FC6E63;stroke:#2196F3;stroke-miterlimit:10;}
	.st35{opacity:0.12;clip-path:url(#SVGID_24_);fill:url(#);}
	.st36{clip-path:url(#SVGID_24_);fill:none;}
	.st37{fill:#2196F3;stroke:#2196F3;stroke-miterlimit:10;}
</style>
<g id="Layer_1">
	<g>
		<g>
			<circle class="st17" cx="22.2" cy="22.7" r="22.3"/>
		</g>
		<g>
			<g>
				<path class="st9" d="M26.6,19.5c0.4,0,1.1-0.2,1.7-1v0.9h1.5v-8h-1.5v6.1c-0.2,0.2-0.6,0.6-0.9,0.6c-0.3,0-0.4-0.2-0.4-0.5v-6.1
					h-1.5v6.7C25.5,18.9,25.8,19.5,26.6,19.5z"/>
				<path class="st9" d="M19.9,17.4c0,1.4,0.7,2.1,2.2,2.1c1.2,0,2.1-0.8,2.1-2.1v-3.9c0-1.3-0.9-2.1-2.1-2.1
					c-1.3,0-2.2,0.9-2.2,2.1V17.4z M21.5,13.6c0-0.4,0.2-0.8,0.6-0.8c0.5,0,0.7,0.3,0.7,0.8v3.7c0,0.4-0.2,0.8-0.6,0.8
					c-0.4,0-0.6-0.3-0.6-0.8V13.6z"/>
				<polygon class="st9" points="16.4,19.4 18.1,19.4 18.1,15 20,8.6 18.3,8.6 17.2,12.9 16.1,8.6 14.4,8.6 16.4,15 				"/>
			</g>
			<g>
				<path class="st9" d="M31.8,21.2H14.2c-1.9,0-3.4,1.5-3.4,3.4v8.6c0,1.9,1.5,3.4,3.4,3.4h17.5c1.9,0,3.4-1.5,3.4-3.4v-8.6
					C35.2,22.7,33.6,21.2,31.8,21.2z M16.6,34.1H15v-8.8h-1.6v-1.5h4.9v1.5h-1.6V34.1z M22.2,34.1h-1.4v-0.8
					c-0.3,0.3-0.5,0.5-0.8,0.7c-0.8,0.4-1.8,0.4-1.8-1.1v-6.4h1.4v5.8c0,0.3,0.1,0.5,0.4,0.5c0.3,0,0.7-0.4,0.8-0.6v-5.8h1.4V34.1z
					 M27.7,32.5c0,0.9-0.4,1.7-1.3,1.7c-0.5,0-0.9-0.2-1.3-0.7v0.6h-1.4V23.8h1.4v3.3c0.3-0.4,0.8-0.7,1.3-0.7c1,0,1.4,0.9,1.4,1.9
					V32.5z M32.9,30.5h-2.7v1.4c0,0.6,0,1.1,0.6,1.1c0.6,0,0.6-0.4,0.6-1.1v-0.5h1.5v0.6c0,1.5-0.6,2.4-2.1,2.4c-1.4,0-2-1-2-2.4
					v-3.4c0-1.3,0.9-2.2,2.1-2.2c1.4,0,2,0.9,2,2.2V30.5z"/>
				<path class="st9" d="M30.8,27.6c-0.5,0-0.6,0.4-0.6,0.9v0.8h1.3v-0.8C31.5,28,31.4,27.6,30.8,27.6z"/>
				<path class="st9" d="M25.3,27.7c-0.1,0.1-0.2,0.1-0.3,0.2v4.7c0.1,0.1,0.2,0.2,0.3,0.3c0.2,0.1,0.6,0.1,0.7-0.1
					c0.1-0.1,0.1-0.3,0.1-0.5v-3.9c0-0.3-0.1-0.5-0.2-0.6C25.9,27.6,25.6,27.5,25.3,27.7z"/>
			</g>
		</g>
	</g>
</g>
<g id="specctr">
	<g id="Spacing">
	</g>
	<g id="Coordinates">
	</g>
	<g id="Text_Properties">
	</g>
	<g id="Dimensions">
	</g>
	<g id="Object_Properties">
	</g>
</g>
</svg>
